<?xml version="1.0" encoding="UTF-8"?>
<svg version="1.1" viewBox="0 0 2048 2048" width="512" height="512" xmlns="http://www.w3.org/2000/svg">
<path transform="translate(570,224)" d="m0 0h906l29 2 28 4 30 7 30 10 23 10 16 8 20 11 12 8 17 12 17 14 8 7 13 12 16 17 9 11 14 18 16 25 13 24 10 22 10 27 8 29 5 27 3 26 1 19v894l-1 26-4 32-6 27-6 21-10 28-8 18-10 19-12 20-14 20-11 14-13 15-24 24-11 9-12 10-20 14-20 12-23 12-20 9-25 9-30 8-20 4-35 4-23 1h-882l-28-1-26-3-23-4-27-7-26-9-26-11-21-11-23-14-11-8-13-10-13-11-12-11-20-20-9-11-12-15-12-17-12-20-12-23-10-23-12-36-5-21-5-32-2-24v-919l3-30 5-28 7-26 7-21 10-24 13-26 11-18 13-19 11-14 11-13 11-12 13-13 8-7 12-10 16-12 15-10 15-9 22-12 25-11 30-10 28-7 23-4 18-2zm210 303-2 1 1 7 6 5 11 7 8 8 7 10 7 14 1 8-3 6-6 3-16 3-2 1 1 6 9 10 13 10 7 6h2l5 10-1 7-5 4-32 9-25 7-15 6-3 5-1 6-3 47-4 48-4 38-6 51-9 64-9 56-7 43-10 54-10 56-13 68-8 42-11 57-13 61-12 53-14 58-7 28v3l5-1 12-10 10-6 5-2h5l6 8 7 10 6-1 5-4 6-9 8-16 8-17 6-8 4-3h8l6 3 4 7 5 18 5 32 4 6 8 1 6-3 6-8 9-17 8-18 8-16 7-11 4-3h5l5 4 8 14 8 16 6 8 3 2 5-1 4-8 4-9 5-5 9 1 10 6 11 11 9 14 8 16 5 2 3-3 2-7 8-80 9-73 14-96 16-95 2-11h40l61 2 75 4 97 7h7l4-4-1-4-8-7-11-8-9-10-9-14-3-9 1-7 5-5 4-2 10-2-3-3-21-8-9-6-2-3 1-4 5-4 16-6 40-10 14-5 5-4 3-8-3-6-5-4-14-6-19-7-13-7-4-5-2-4v-8l5-5 10-5 30-9 16-8 4-4v-5l-8-8-5-4-2-5 6-10 11-12 7-7v-3l-19 1-83 6-75 4-63 2h-43l6-32 11-58 2-9v-5l-8-2-52-7-42-6-16-2 1-2 34-5 43-4 19-1h154l52 1 54 2 66 4 63 5h16l-4-8-7-11-4-10 1-5 7-6 13-9 2-3-1-4-7-6-14-6-24-8-6-4-1-7 4-8 5-4 16-8 21-8 15-5 9-5 6-7-1-6-5-5-10-5-41-12-10-5-3-5 4-5 16-8 20-8 2-2-4-1-10-2-2-3 1-8 6-9 12-12 11-9 13-9 14-9 3-3 1-5-1-1h-11l-103 7-60 3-55 2-48 1h-121l-88-2-56-3-109-8z" fill="#D81F2E"/>
<path transform="translate(570,224)" d="m0 0h12l19 1 435 1 11 1v3h-5l2 1h9v1h22l-2 4h-5v-2h-6l-1 3-5 2-1 1 5 1-2 1v2l2 1-2 2 2 4h2l-1 3-1 2-4-1-2 4v2h5l-2 2 1 2-1 2h-5l-1-3v2l-5 3-4-2v2h-3v2l-4-2-2 4-2 1-1 4h9v3h2l-1 4-3 3-4 1v3h2v6l5 4h-2l-1 6-4-1-3 1v2h2v2l3-2 3-1 1 5h-2l1 3-6 1v3l4-1 1 4-5 1-5-1v5l7 2 3 4-8 2-1-1-1 2h2l2 2 4 1v3h-3v4h2l-1 2-3 2 2 4h2v2h-2l-1 3v-3h-4v15l-4-1v-3l-2 2 1 4 1-2 4 1 2 6v4h-2v4h2l2 3 1 2h-2v6l2 1v3h2l1 6-3 3 3 1v3l3-1 7 2v5h2l-1 2h-1l3 6v2l3-2 4 1-2 4-2 2-2-1v5l1 3 3-1 1 3h-3l-1 2v-2l-4 2 2 6v7l-2 4-1 5 6 3v5l2 1 5 5-4 7-4 1h-2l-6 2v2h-2v2h-2l1 5 3-1v2h2v-3l3 1-2 3h2l3 3 2 1 1 7-3 2v-2h-2l-1 2 4 1v3l-6-1v2l-6-1-6 7h-2v3l12 1 3-2 3 2h2l2 2 6-2v2l9-1 6 1 15 1 2 3 1-2 12 2 59 1v1h-121l-88-2-56-3-109-8h-11l3 8 9 6 8 6 7 7 7 10 7 14 1 8-3 6-4 3-14 3-7 1 4 9 7 7 12 9 9 7 5 7 1 8-5 6-15 5-37 10-15 5-8 4-2 9-3 47-4 48-4 38-6 51-9 64-9 56-7 43-10 54-10 56-13 68-8 42-11 57-13 61-12 53-14 58-8 31 6-3 15-12 11-5h5l6 7 7 11 6-1 3-3h2l2-4 9-16 10-22 6-8 5-4h8l6 3 4 5 4 13 3 15 4 25 3 5 8 1 6-3 7-10 10-21 10-22 10-16 5-4h5l6 5 8 14 8 16 5 7 3 2 5-1 6-15 5-6 2-1 9 1 10 6 12 12 9 14 8 16 6 1 2-9 8-80 9-73 14-96 16-95 2-11 1-1h40l61 2 23 1-3 3h-2v2l7 2h6l2 1v2h-11l-4 1-1-1-2 2h-9l-2-3-1 3-5 1 1 1h5v2l13-1 7 2v2l6-1v2h2v2h2l1-2h16l4 4v3l7 1 4 3 1 7-5 1-1-1-1 2h-2v2l2 1-1 4h-6v2h-7v3h-2l-1-5v1l-1 2-5 3h2l4-1 3 1v2h2l-2 5-4 4-1 4-1 2h-2v2l7-1 2 3 3-1v-5l4-2 4 3v3h-2v5l2 1 1-2 1 5-2 5h-2l1 2 2 1-1 10 1 5-1 3 2 1-1 7-1 4h-5l-2 3h-2v2h-2l-1 9h-4l-2 6 1 4-1 5 1 3h2v-2h2v-3h-2l-1-4 3-3 2 2v20l-1 2h-7l1 8 1 6 1 5 2 5-1 5-2 2v4h2v3h-2v3h3v2h2v6l-4-4-1 28 1 9 1 2h-2l3 6 1-14h1l1 18v20l-1 8h-1v-23l-4 1v2h2l1 3-1 3h-2v3l3 1-1 5-2 3v24l-2 33v9l-1 5-1 1h1v5l-5 4-2 3-2 8h-2l1 3-1 2h2v5h-1l-2 19-2 3 1 6h-2v8l-1 2h-2l1 5 2 1v2h-3l-1 2-2 5-2-2-2 6-1 11-3 5-2 4-2 1-3 6h-2l-1 11-7 3v2l1 4-3 1-3 5-2 3 1 1-2 4h-3v4l5 1-2 1-1 2-3-1v6l2 1-2 3-1 5h2v-4l2 1 1 1h2v-10l1-4h6l1 4-5 4 5 2 2 1v3h-2v4l1 3h3l1-3 1 3 3 1v-6l3 1 3 6h-4l2 3v4l-5 3h-3v-2h2l1-4-3-2v-2l-4 1-2 5h-2l-1-2h-3v7l3-1 1 2h2l1-3 3 3-2 6 1 8v1l1 2h-2l3 3v2l3 1 1 3-3 2v2l-2 2 2 3-4 1v3l-4 2-5 2-1-3-1 3h-2v-2l-2 2 1 3-3 4h-3l5 1 3-1 1-2v8l2-1-1 3 3-1v-2l4-1-1-3 4-1v5l3 1-2 1v2h-3l-3 9 3-1v5l-7 1v2h3l9 2-1 5h-3v3l-8-2-1 6 4 2v2h2l1-2 4 1 2-1 2 5-2 1 2 4-4 2-2 2v2h-2v4l-4 2-1 1 3 2h-3v2l10-2 5 2 4-1 5 1 36 1 1 2 9 1-1 2h-7l-1 1 10-1 2 1 292 1v1h-816l-28-1-26-3-23-4-27-7-26-9-26-11-21-11-23-14-11-8-13-10-13-11-12-11-20-20-9-11-12-15-12-17-12-20-12-23-10-23-12-36-5-21-5-32-2-24v-919l3-30 5-28 7-26 7-21 10-24 13-26 11-18 13-19 11-14 11-13 11-12 13-13 8-7 12-10 16-12 15-10 15-9 22-12 25-11 30-10 28-7 23-4 18-2z" fill="#D92561"/>
<path transform="translate(947,1150)" d="m0 0h40l61 2 23 1-3 3h-2v2l7 2h6l2 1v2h-11l-4 1-1-1-2 2h-9l-2-3-1 3-5 1 1 1h5v2l13-1 7 2v2l6-1v2h2v2h2l1-2h16l4 4v3l7 1 4 3 1 7-5 1-1-1-1 2h-2v2l2 1-1 4h-6v2h-7v3h-2l-1-5v1l-1 2-5 3h2l4-1 3 1v2h2l-2 5-4 4-1 4-1 2h-2v2l7-1 2 3 3-1v-5l4-2 4 3v3h-2v5l2 1 1-2 1 5-2 5h-2l1 2 2 1-1 10 1 5-1 3 2 1-1 7-1 4h-5l-2 3h-2v2h-2l-1 9h-4l-2 6 1 4-1 5 1 3h2v-2h2v-3h-2l-1-4 3-3 2 2v20l-1 2h-7l1 8 1 6 1 5 2 5-1 5-2 2v4h2v3h-2v3h3v2h2v6l-4-4-1 28 1 9 1 2h-2l3 6 1-14h1l1 18v20l-1 8h-1v-23l-4 1v2h2l1 3-1 3h-2v3l3 1-1 5-2 3v24l-2 33v9l-1 5-1 1h1v5l-5 4-2 3-2 8h-2l1 3-1 2h2v5h-1l-2 19-2 3 1 6h-2v8l-1 2h-2l1 5 2 1v2h-3l-1 2-2 5-2-2-2 6-1 11-3 5-2 4-2 1-3 6h-2l-1 11-7 3v2l1 4-3 1-3 5-2 3 1 1-2 4h-3v4l5 1-2 1-1 2-3-1v6l2 1-2 3-1 5h2v-4l2 1 1 1h2v-10l1-4h6l1 4-5 4 5 2 2 1v3h-2v4l1 3h3l1-3 1 3 3 1v-6l3 1 3 6h-4l2 3v4l-5 3h-3v-2h2l1-4-3-2v-2l-4 1-2 5h-2l-1-2h-3v7l3-1 1 2h2l1-3 3 3-2 6 1 8v1l1 2h-2l3 3v2l3 1 1 3-3 2v2l-2 2 2 3-4 1v3l-4 2-5 2-1-3-1 3h-2v-2l-2 2 1 3-3 4h-3l5 1 3-1 1-2v8l2-1-1 3 3-1v-2l4-1-1-3 4-1v5l3 1-2 1v2h-3l-3 9 3-1v5l-7 1v2h3l9 2-1 5h-3v3l-8-2-1 6 4 2v2h2l1-2 4 1 2-1 2 5-2 1 2 4-4 2-2 2v2h-2v4l-4 2-1 1 3 2h-3v2l10-2 5 2 4-1 5 1 36 1 1 2 9 1-1 2h-7l-2 2h-202l4-2h14l-5-1-4 1-4-2h-3l-8-1-3 1-1-2h-20l-4-1h-14l-2-2-8 1v-2l-4 1-2-1v2l-6-2-2-3 6-2 2-1v2l6-1 14-2h2l3-3 3 2 9-4 2-4 4-2 2 1 1 2v-4l-2-1 3-7-1-2h7l-1-2 3-1 1-2-2-1v-7l1 3h3l3-8 3-1v-3l-2 1-2 2-1-2-2 2-2-7-2-4 1-2h-5l-5-4h2l-1-5-6-3v-5l4-1 1 2h4l-3-5v-3l4-4h2l1-3-5-2 4-3 4 1 7-2 8-8-2-1-1-2-5-1-1-6 1-5 4 1 2-1-2-5-2 1-4-1-3-4 1-3h3l-1-5-2-5-1-4-2 1v6l-5 1-1-4v-9l1-3 3-1 1-9 5-5h4 3l1-2 3-1 1-4 2 1 2-8 6-2 1-8 3 1v-2l2-1-1-3v-10l2-1 5 1 1-4h-3v-2h2v-3h2l3-6-1-7h3l3 1 3-9-1-2 3 1-2-4-5 3-2-1 1-4 4-3h2v-3l-7-1-5-4h2l1-3 2 1 1-2v3l4 1 2-3-1-3 2-3 1-3 1-2h2v-2l4-4h2l-1-6 3-10h2v-2l2-1-1-7-6 1v-4l2-1 1-6h5v-2l6 2-3-5-4-1-2-4h2l-1-4-2-1 1 3h-2l1 6-5 3 1 5 1 3-5 1-1 2-4 2-1 4-1-2-2 4h-1v2l-3-1v-8l5-11h4l2-1v-2h2l1-2h1l1-6-2-5-6 1-4-4v-3h2l2-8h2l2-1v-2l4-2 2 1-1-3v-4l1-5 6 1v-2h-6l1-2-8-1 1-4 3-3h2l1-6h2v-3h2l-3-6 2-1 3 2 1-1v-5l-3-1-3-4 3-6-2-1v-3h2l-1-7-4 1-3-5h2l5-5-1-2 2-1v-6h-4l-2 7-1 3-2 2-1 3h-3l1 4h3v5l-2-1-1 2h-2v2l4-1 3 4-1 5h-2l-1 3-3-1-1 2h-3l-2 6-1 1h3l1 3 2 4h-2l1 3h-6l-2 4v5h-2v5l4 1 1 2-3 8-1 3 3 3 1 4h-2l-1 2h-3v5l3 4 4-1 2 1v2h2v2h-2v2l-2 1 1 6-1 3-4 1-1-3h-2v-2l-4 2-1 5h-4l-5 1-1 4-5 5-5-2v-14l7-70 9-73 14-96 16-95 2-11z" fill="#D82349"/>
<path transform="translate(859,226)" d="m0 0h177l11 1v3h-5l2 1h9v1h22l-2 4h-5v-2h-6l-1 3-5 2-1 1 5 1-2 1v2l2 1-2 2 2 4h2l-1 3-1 2-4-1-2 4v2h5l-2 2 1 2-1 2h-5l-1-3v2l-5 3-4-2v2h-3v2l-4-2-2 4-2 1-1 4h9v3h2l-1 4-3 3-4 1v3h2v6l5 4h-2l-1 6-4-1-3 1v2h2v2l3-2 3-1 1 5h-2l1 3-6 1v3l4-1 1 4-5 1-5-1v5l7 2 3 4-8 2-1-1-1 2h2l2 2 4 1v3h-3v4h2l-1 2-3 2 2 4h2v2h-2l-1 3v-3h-4v15l-4-1v-3l-2 2 1 4 1-2 4 1 2 6v4h-2v4h2l2 3 1 2h-2v6l2 1v3h2l1 6-3 3 3 1v3l3-1 7 2v5h2l-1 2h-1l3 6v2l3-2 4 1-2 4-2 2-2-1v5l1 3 3-1 1 3h-3l-1 2v-2l-4 2 2 6v7l-2 4-1 5 6 3v5l2 1 5 5-4 7-4 1h-2l-6 2v2h-2v2h-2l1 5 3-1v2h2v-3l3 1-2 3h2l3 3 2 1 1 7-3 2v-2h-2l-1 2 4 1v3l-6-1v2l-6-1-6 7h-2v3l12 1 3-2 3 2h2l2 2 6-2v2l9-1 6 1 15 1 2 3 1-2 12 2 59 1v1h-121l-88-2-56-3-7-2 3-2-1-3-8 3-4 1-5-3v-3l-12-1h-11l-1-4 7-2h20l7-1 1-2 7 1 3 2v-5l-3-2 2-4-3-3 1-2 2 1 3 1 1-2 2 1-1-13v-3l-2-1 1-6-3 1-1-4 2-6v-5l-1-2-4-1-2-2 2-3v-5h-2v-3h-3v-10l4-2 1-3v2h2l1-2 4 1 3-1-5-1 4-4h2l-2-8 1-4-6-1-1-5 2-1-2-3h2l-2-3-5-1v-4l6-1 3 2 1 4h2l-1-3 1-2-3-1-1-4-2 1-1-4-4-2v-2h-4l-1-2-7 2-2-2 5-1-6-2 2-2 4-1-2-1-3-5-2 1-7-2 2-5-2-4 6 2-1-5-3-1v-6h3 2l-1-4h-6l-1-6h4 2v-2l-3-1-5-2-3-6-6-1-1-3-6-1 1-2-3-6v-3l6-2h2l1 4h2l-1-4 1-2-5 1 3-5 4-1 4 4h4l-4-5 13-6 2-4 1 2 2-4-8-2v-3-3h-2v2l-2-1 1-2-6-2 2-4-2-2-1-3-2-1v-3h-6l1-4 4 1 5-2 1-2-2-1 2-1 5 1 6-2v-1l-2-1 1-2h3v-2h2v-2l7-1 3-3-2-3-3 1h-3v-2l-2 1-1 3h-1l-1 2-4-2-1-7-4 1-1 2-4-1-1-2h-3l1-2h-2v2l-2-1v-2l-2-1-1-1h-10l-1-1h-2v-4l-5-2-5 2-2-2 5-2 16-1 4 1v-2z" fill="#D82349"/>
<path transform="translate(988,778)" d="m0 0h76v3l-5 1h-5l-4 4-3-1-4-2 1 3 15 2 3-1h2l5 1v3l2 1h-8l-5 1h-3l5 1 3 1 1 4 4-3 6 2h6l-2 7h5l4-1 1 3-1 5h-3v2l-2 1 1 3h-2l-1 2-5 2-3 3-6 1-4 2 1 8-1 5 1 4-1 2-1 1 1 4h6l1 5-3 3-1 3h-2l-1 3h-2l-2 6v3h-4l-1 5 1 3v5l-3 2-1-2h-2v2h-2v2l-3 1v5l-8-1-3 3v1l-10 1-1 2-10-3 1 3 15 1v2l2-2 10-1 3-1 7 1 6 2h4l1 1 2-2v5l9 1v1l-38 1h-43l-1-2 5-25 12-64 3-14-52-7-36-5-30-5 1-3 34-5 43-4z" fill="#D8234A"/>
<path transform="translate(946,1380)" d="m0 0 5 1v6l-2 2 1 2-6 5 1 3 3 1 1-2 2 4-1 4h-2v3l4 1-2 2v3 3h2l2 3-1 7-5-2 1 3 2 1-1 2h-2v3h-2l1 4-3 3h-3l-1 5 3 1 1-2v2l4 1-1 1 5 1v2l-6-1-1 5 2 1-1 6-6 1-1 5h-3l-2 6h-2l1 3 3 3 3 1 1-2 2 1v2l3 1v3l-2 6-4 1 1 4-3-1-1 2-3-1-3 2-1-5 1-4-2-1 2-3 2 1v-2h2v-2h-2v-2l-7 1-1-4-3-1 2-5 5-3-3-5-1-2 2-3 2-8-4-2-1-3 1-2h2l-1-7 4-3h4v-2h2l-3-3-2-3h-2v-2l2-1 2-5 10-5-1-5-3-2h-2v-2h2l1-3 1 1 1-4-3 1-2-3 1-2 3-1 1-4h2l1-8z" fill="#D82460"/>
<path transform="translate(788,1444)" d="m0 0h5l6 5-1 7-9-1-4 4h-2l-1 4-2 4-3 9-2 3h-2v5l-4 5-3 1 1 3h-4l-1 3-2 1 1-7 12-26 10-16z" fill="#D8274E"/>
<path transform="translate(841,1465)" d="m0 0 9 1 5 3-1 3 2 1v2h-2l6 7 3 4v5l-2-1v-3l-3 1h-1l-1 2h-2v2l-2-1 1-2-3 1-2 3-2-5 2-2-2-5-4 2-3-1v-5h-2v2l-4 1 1-8 5-6z" fill="#D8244B"/>
<path transform="translate(849,1604)" d="m0 0 3 4h-2l1 4-1 2 2 1h-5l5 2 7-7 6 2v-2l3 1h-2l1 2 2 1-1 1 4 2-5 1-3-2-3 1-2 5-11-1h-4l-1 9h-6l-4 2-2-1v-8l3-5 5-3 3-7 3 1v-2z" fill="#D82349"/>
<path transform="translate(873,1685)" d="m0 0 4 1 2 1 1 7h2l2 4-5 1-5-2-3 4 1 1 7 2v5l-8 1-3-3-1 5h-4v-2h-6v-2h-2v-2l8 2 1-4-2-6-4 4-4-1v-3l3-4 6 2 4-1h1l1-2h-5l-3-4h2v-3h4v2l5-1z" fill="#D82349"/>
<path transform="translate(700,1453)" d="m0 0h8l6 3 2 2-1 4-3 1-4-2-1-2-9 3-2 6-2 2-3 8-2 4-5 2-1-6 8-16 7-8z" fill="#D8254E"/>
<path transform="translate(921,1566)" d="m0 0 4 2v2l-2 1-3 8-3 3 3 5-2 2-3 1-2-1v2l-3-1-1-4 2-2h3l-1-3-6-1-1-2 4-4 3-1v-3l7 1z" fill="#D82349"/>
<path transform="translate(955,1435)" d="m0 0h5v7l-2 6h-2l1 8-1 2 4-1 2 2h-2l1 4-1 4h-2v4l-6-1-2-2 1-4h3l-1-5-1-2-4 1 1-3 5 1v-10l2-4zm2 24 1 2z" fill="#D82460"/>
<path transform="translate(823,633)" d="m0 0 5 4 2 5-1 7-2 2-7 2h-3-2v-4l5-3 2-12z" fill="#D8264D"/>
<path transform="translate(1195,1111)" d="m0 0 3 4v3h2l2 4v3l4 2 1 2-1 3h2l1-2 3 3h-2l-1 3-4-1-7-8-7-12 4-2z" fill="#D82548"/>
<path transform="translate(855,1469)" d="m0 0 6 4 11 11-1 5-1-2 1-2h-3l-1 2-2-1v-3h-6l-1-4-4-2v-2h2v-2l-3-1z" fill="#D82650"/>
<path transform="translate(949,1485)" d="m0 0 3 1v4l1 1-1 3 7 1v5l-5-1-1 2-5-1v4l-4-2-1-5 4-3h2l-1-6z" fill="#D8245F"/>
<path transform="translate(883,1528)" d="m0 0 5 2 5 6-1 3-4-1v-1l-7-2-1-3 1-2h2z" fill="#D82349"/>
<path transform="translate(859,310)" d="m0 0 4 2 4 5-1 3-6 2-2-5 1-2-5 1 3-5z" fill="#D82351"/>
<path transform="translate(1201,1124)" d="m0 0 5 3 1 2-1 3h2l1-2 3 3h-2l-1 3-4-1-7-8v-2z" fill="#D82248"/>
<path transform="translate(940,1554)" d="m0 0h5l-2 6 1 2-1 3h-2l-1 3v-2l-4-1v-2h2v-2l-2-1 3-1z" fill="#D82461"/>
<path transform="translate(880,1774)" d="m0 0 5 5-2 5-2 1-6-2-1-5 6-2z" fill="#D82460"/>
<path transform="translate(1026,1152)" d="m0 0h22l9 1v2h-27z" fill="#D82339"/>
<path transform="translate(896,1574)" d="m0 0 5 2-1 4 4 1v3l-4 1-5-3-1-6h2z" fill="#D82349"/>
<path transform="translate(955,1435)" d="m0 0h5v7l-2 6h-2v5l-2-1v-6l2-4z" fill="#D92562"/>
<path transform="translate(817,585)" d="m0 0h1v7l-3 3-4-1v-2h-2l1-3z" fill="#D92B51"/>
<path transform="translate(882,1504)" d="m0 0 3 3 5 10-4-1-1 2v-4h-3l-1-6z" fill="#D8274F"/>
<path transform="translate(824,1626)" d="m0 0h4l-1 7-1 4-4-1-1-3z" fill="#D82349"/>
<path transform="translate(868,1557)" d="m0 0 3 1v4l-2 1-1 5-3 1-2-4 1-5h5z" fill="#D82349"/>
<path transform="translate(881,508)" d="m0 0 5 2v5l-7-2-4-1 1-3z" fill="#D82349"/>
<path transform="translate(1051,1711)" d="m0 0h6l-3 9h-5l2-1v-2l-2-1v-3z" fill="#D82243"/>
<path transform="translate(845,525)" d="m0 0h4l-1 6h-9l1-4z" fill="#D82349"/>
<path transform="translate(1062,260)" d="m0 0 5 1 1 6h-4l-3-1-3-3h2v-2z" fill="#D82246"/>
<path transform="translate(855,1469)" d="m0 0 4 2 1 4 2 4-4-2v2l-4-2v-2h2v-2l-3-1z" fill="#D92A64"/>
<path transform="translate(909,400)" d="m0 0 3 2 1 4-2 4h-3l-1-6v-2h2z" fill="#D82461"/>
<path transform="translate(836,230)" d="m0 0h9l1 2 4 2-4 1-8-3-5 2-2-2z" fill="#D82350"/>
<path transform="translate(785,523)" d="m0 0 7 1 2 3h-12v-2z" fill="#D82349"/>
<path transform="translate(1035,1799)" d="m0 0 2 1v3l2 1-3 1v2l-4 1-4-1 4-1 2-5z" fill="#D81F2E"/>
<path transform="translate(915,1553)" d="m0 0h3 1v7l-3 1-4-2 2-1z" fill="#D8234B"/>
<path transform="translate(1023,529)" d="m0 0 7 1v2l-2 1h-12l3-2h3z" fill="#D81F2F"/>
<path transform="translate(1038,1680)" d="m0 0 4 3-1 3v-2h-2l-1 3-3 1v-6z" fill="#D81F2E"/>
<path transform="translate(944,1474)" d="m0 0h5l-1 4-3 1-2-1v2h-2l-1-5 4 1z" fill="#D82461"/>
<path transform="translate(991,906)" d="m0 0 1 2 3 1 1 4h-6l-1-2z" fill="#DA2C67"/>
<path transform="translate(880,1774)" d="m0 0 2 2-1 3-4 1v3l-3-1v-4l6-2z" fill="#D82349"/>
<path transform="translate(868,255)" d="m0 0 8 1-2 4h-5v-2l-2-1z" fill="#D82349"/>
</svg>
